<?xml version="1.0" encoding="UTF-8" standalone="no"?>
<!-- Created with Inkscape (http://www.inkscape.org/) -->

<svg
   width="511.99997"
   height="512"
   viewBox="0 0 135.46665 135.46667"
   version="1.1"
   id="svg1"
   xml:space="preserve"
   inkscape:export-filename="we2_icon.png"
   inkscape:export-xdpi="96.000008"
   inkscape:export-ydpi="96.000008"
   inkscape:version="1.3.2 (091e20e, 2023-11-25, custom)"
   sodipodi:docname="we2_icon.svg"
   xmlns:inkscape="http://www.inkscape.org/namespaces/inkscape"
   xmlns:sodipodi="http://sodipodi.sourceforge.net/DTD/sodipodi-0.dtd"
   xmlns="http://www.w3.org/2000/svg"
   xmlns:svg="http://www.w3.org/2000/svg"><sodipodi:namedview
     id="namedview1"
     pagecolor="#ffffff"
     bordercolor="#666666"
     borderopacity="1.0"
     inkscape:showpageshadow="2"
     inkscape:pageopacity="0.0"
     inkscape:pagecheckerboard="0"
     inkscape:deskcolor="#d1d1d1"
     inkscape:document-units="mm"
     inkscape:zoom="1.0520974"
     inkscape:cx="172.03731"
     inkscape:cy="277.06561"
     inkscape:window-width="2560"
     inkscape:window-height="1377"
     inkscape:window-x="2552"
     inkscape:window-y="404"
     inkscape:window-maximized="1"
     inkscape:current-layer="layer1" /><defs
     id="defs1"><linearGradient
       id="a"
       x1="147.97922"
       x2="147.97922"
       y1="53.629154"
       y2="173.86226"
       gradientTransform="scale(0.86498638,1.1560876)"
       gradientUnits="userSpaceOnUse"><stop
         offset="0%"
         stop-color="#138FDC"
         id="stop1" /><stop
         offset="100%"
         stop-color="#0669BC"
         id="stop2" /></linearGradient></defs><g
     inkscape:label="Layer 1"
     inkscape:groupmode="layer"
     id="layer1"><rect
       style="display:none;fill:#3c4657;fill-opacity:1;stroke-width:0.485003;stroke-linecap:round;stroke-linejoin:bevel;stroke-dashoffset:14"
       id="rect1"
       width="135.46666"
       height="101.6"
       x="2.2705078e-07"
       y="16.205721"
       ry="0" /><rect
       style="display:none;fill:#3c4657;fill-opacity:0.619565;stroke-width:0.560033;stroke-linecap:round;stroke-linejoin:bevel;stroke-dashoffset:14"
       id="rect1-3"
       width="135.46666"
       height="135.46666"
       x="-135.46666"
       y="0"
       transform="scale(-1,1)" /><g
       id="g4"
       transform="matrix(1.3333332,0,0,1.3333332,-22.57777,-22.57777)"><g
         id="g3"
         transform="matrix(0.396875,0,0,0.396875,16.93333,16.93333)"><rect
           width="256"
           height="192"
           y="32"
           fill="#797774"
           rx="7"
           id="rect2"
           x="0" /><rect
           width="101.6"
           height="76.199997"
           y="103.95556"
           fill="#797774"
           rx="2.778125"
           id="rect2-5"
           x="21.288895"
           style="stroke-width:0.396875" /><path
           fill="#fafafa"
           d="m 7,42 h 242 a 4,4 0 0 1 4,4 v 167 a 8,8 0 0 1 -8,8 H 11 A 8,8 0 0 1 3,213 V 46 a 4,4 0 0 1 4,-4 z"
           id="path2" /><rect
           width="104"
           height="139"
           x="76"
           y="62"
           fill="url(#a)"
           rx="3"
           id="rect3"
           style="fill:url(#a)" /><path
           fill="#969696"
           d="m 17,62 h 44 v 2 H 17 Z m 0,16 h 44 v 2 H 17 Z m 0,16 h 44 v 2 H 17 Z m 0,16 h 44 v 2 H 17 Z m 0,16 h 44 v 2 H 17 Z m 0,16 h 44 v 2 H 17 Z m 0,16 h 44 v 2 H 17 Z m 0,16 h 44 v 2 H 17 Z M 194,62 h 44 v 2 h -44 z m 0,16 h 44 v 2 h -44 z m 0,16 h 44 v 2 h -44 z m 0,16 h 44 v 2 h -44 z m 0,16 h 44 v 2 h -44 z"
           id="path3" /><path
           fill="#c4c4c4"
           d="m 226,35 h 4 v 4 h -4 z m 8,0 h 4 v 4 h -4 z m 8,0 h 4 v 4 h -4 z"
           id="path4" /></g><rect
         width="256"
         height="192"
         y="32"
         fill="#797774"
         rx="7"
         id="rect4"
         x="0"
         transform="matrix(0.396875,0,0,0.396875,16.93333,16.93333)"
         style="fill:#3c4657;fill-opacity:0.619608"
         inkscape:label="Tint" /><text
         xml:space="preserve"
         style="font-style:normal;font-variant:normal;font-weight:normal;font-stretch:normal;font-size:43.1705px;line-height:1.25;font-family:Vegur;-inkscape-font-specification:Vegur;letter-spacing:0px;word-spacing:0px;fill:#000000;fill-opacity:1;stroke:none;stroke-width:0.197425"
         x="22.355247"
         y="83.646317"
         id="text1"><tspan
           id="tspan1"
           style="font-style:normal;font-variant:normal;font-weight:normal;font-stretch:normal;font-size:43.1705px;font-family:Inter;-inkscape-font-specification:Inter;stroke-width:0.197425"
           x="22.355247"
           y="83.646317"
           sodipodi:role="line"><tspan
             style="font-style:normal;font-variant:normal;font-weight:normal;font-stretch:normal;font-size:43.1705px;font-family:Inter;-inkscape-font-specification:Inter;fill:#ffffff;fill-opacity:1;stroke-width:0.197425"
             id="tspan2">WE</tspan><tspan
             style="font-style:normal;font-variant:normal;font-weight:normal;font-stretch:normal;font-size:43.1705px;font-family:Inter;-inkscape-font-specification:Inter;fill:#9ed6e4;fill-opacity:1;stroke-width:0.197425"
             id="tspan3">2</tspan></tspan></text></g></g></svg>
